Coordinates
version=1
nRows=38
nColumns=12
inDegrees=yes

Units are S.I. units (second, meters, Newtons, ...)
Angles are in degrees

endheader
time	SC_y	SC_z	SC_x	AC_y	AC_z	AC_x	GH_y	GH_z	GH_yy	EL_x	PS_y
       0.0              -28.15         -2.638          11.96          31.13            2.1          16.22         -86.67          2.461         -84.06          66.63          153.9
   0.03301              -28.15         -2.635          11.97          31.13          2.101          16.21         -86.67          2.468         -84.06          66.62          153.9
   0.06602              -28.16         -2.632          11.98          31.14          2.102          16.21         -86.67          2.476         -84.06          66.61          153.9
   0.09903              -28.16         -2.629          11.99          31.14          2.102          16.21         -86.67          2.484         -84.06           66.6          153.9
     0.132              -28.16         -2.626           12.0          31.15          2.103           16.2         -86.67          2.493         -84.05          66.59          153.9
     0.165              -28.16         -2.622          12.02          31.15          2.104           16.2         -86.67          2.502         -84.05          66.58          153.9
    0.1981              -28.16         -2.619          12.03          31.16          2.105           16.2         -86.67          2.512         -84.05          66.57          153.9
    0.2311              -28.16         -2.614          12.04          31.16          2.106          16.19         -86.67          2.522         -84.04          66.56          153.9
    0.2641              -28.16          -2.61          12.06          31.17          2.107          16.19         -86.67          2.534         -84.04          66.55          153.9
    0.2971              -28.16         -2.605          12.07          31.18          2.108          16.18         -86.67          2.546         -84.04          66.54          153.9
    0.3301              -28.16           -2.6          12.09          31.19          2.109          16.18         -86.67          2.559         -84.03          66.52          153.9
    0.3631              -28.16         -2.595          12.11          31.19          2.111          16.17         -86.67          2.573         -84.03          66.51          153.9
    0.3961              -28.16         -2.589          12.13           31.2          2.112          16.17         -86.67          2.588         -84.03          66.49          153.9
    0.4291              -28.16         -2.583          12.15          31.21          2.114          16.16         -86.67          2.605         -84.02          66.48          153.9
    0.4621              -28.16         -2.576          12.17          31.22          2.115          16.15         -86.67          2.623         -84.02          66.46          153.9
    0.4951              -28.17         -2.568           12.2          31.23          2.117          16.15         -86.67          2.642         -84.01          66.44          153.9
    0.5282              -28.17          -2.56          12.23          31.25          2.119          16.14         -86.67          2.663          -84.0          66.41          153.9
    0.5612              -28.17         -2.552          12.25          31.26          2.121          16.13         -86.66          2.686          -84.0          66.39          153.9
    0.5942              -28.17         -2.542          12.29          31.28          2.123          16.12         -86.66          2.711         -83.99          66.36          153.9
    0.6272              -28.17         -2.531          12.32          31.29          2.126          16.11         -86.66          2.738         -83.98          66.34          153.9
    0.6602              -28.17          -2.52          12.36          31.31          2.129           16.1         -86.66          2.768         -83.98           66.3          153.9
    0.6932              -28.18         -2.507           12.4          31.33          2.132          16.09         -86.66          2.801         -83.97          66.27          153.9
    0.7262              -28.18         -2.493          12.45          31.35          2.135          16.07         -86.66          2.837         -83.96          66.23          153.9
    0.7592              -28.18         -2.478           12.5          31.37          2.139          16.06         -86.66          2.877         -83.94          66.19          153.9
    0.7922              -28.18          -2.46          12.56           31.4          2.143          16.04         -86.65          2.922         -83.93          66.14          153.9
    0.8252              -28.19         -2.441          12.63          31.43          2.148          16.02         -86.65          2.972         -83.92          66.09          153.9
    0.8583              -28.19         -2.419           12.7          31.46          2.153           16.0         -86.65          3.028          -83.9          66.03          153.9
    0.8913               -28.2         -2.395          12.78           31.5          2.159          15.97         -86.65          3.091         -83.88          65.97          153.9
    0.9243               -28.2         -2.368          12.87          31.54          2.165          15.95         -86.64          3.163         -83.86          65.89          153.9
    0.9573              -28.21         -2.336          12.98          31.59          2.173          15.91         -86.64          3.244         -83.84          65.81          153.9
    0.9903              -28.21         -2.301           13.1          31.64          2.181          15.88         -86.64          3.336         -83.81          65.71          153.9
     1.023              -28.22          -2.26          13.23           31.7          2.191          15.84         -86.63          3.442         -83.78           65.6          153.9
     1.056              -28.23         -2.213          13.39          31.78          2.202          15.79         -86.63          3.564         -83.75          65.47          153.9
     1.089              -28.24         -2.158          13.58          31.86          2.216          15.74         -86.62          3.706         -83.71          65.32          153.9
     1.122              -28.25         -2.094          13.79          31.96          2.231          15.67         -86.61          3.873         -83.66          65.15          153.9
     1.155              -28.26         -2.018          14.05          32.07          2.249           15.6          -86.6          4.069         -83.61          64.94          153.8
     1.188              -28.28         -1.928          14.35          32.21          2.271          15.51         -86.59          4.302         -83.54           64.7          153.8
     1.221              -28.29          -1.82          14.71          32.37          2.297           15.4         -86.58          4.581         -83.46          64.41          153.8
